<?xml version="1.0" encoding="UTF-8"?>
<svg version="1.1" xmlns="http://www.w3.org/2000/svg" width="430" height="232">
<path d="M0 0 C1.67542976 0.28604898 3.34385343 0.61781233 5 1 C5 3.97 5 6.94 5 10 C5.66 9.67 6.32 9.34 7 9 C7 9.66 7 10.32 7 11 C7.73863281 11.09796875 8.47726563 11.1959375 9.23828125 11.296875 C12.34691784 12.0883242 13.80750988 13.13240724 16.1875 15.25 C16.86167969 15.83265625 17.53585938 16.4153125 18.23046875 17.015625 C21.67037221 20.87317678 22.24933242 24.68741902 22.1953125 29.73828125 C22.18886719 30.80498047 22.18242187 31.87167969 22.17578125 32.97070312 C22.15064453 34.62489258 22.15064453 34.62489258 22.125 36.3125 C22.11597656 37.43462891 22.10695313 38.55675781 22.09765625 39.71289062 C22.07414486 42.47547909 22.04128155 45.23762932 22 48 C22.66 48 23.32 48 24 48 C24 50.97 24 53.94 24 57 C25.98 57.495 25.98 57.495 28 58 C28 58.66 28 59.32 28 60 C28.71542969 60.2578125 29.43085938 60.515625 30.16796875 60.78125 C41.71052557 65.74852962 50.10331995 75.02002062 54.9375 86.4375 C59.01633196 97.0424631 60.17569186 110.0875521 56.4375 121.0625 C55.31640625 123.55859375 55.31640625 123.55859375 54 126 C53.51402344 126.91910156 53.02804687 127.83820313 52.52734375 128.78515625 C46.81199811 138.60798433 38.52088866 146.48780853 28 151 C27.34 151 26.68 151 26 151 C26.515625 152.0725 27.03125 153.145 27.5625 154.25 C29.03549111 157.3138215 28.9198036 158.76746339 28 162 C20.63108899 162.07587179 13.26227814 162.12852436 5.89306641 162.16479492 C3.38456458 162.1799103 0.87608928 162.20040298 -1.63232422 162.22631836 C-5.23151182 162.26258042 -8.830351 162.27969874 -12.4296875 162.29296875 C-13.55680145 162.30845261 -14.68391541 162.32393646 -15.84518433 162.33988953 C-16.88611237 162.34011612 -17.92704041 162.34034271 -18.99951172 162.34057617 C-20.37851151 162.35056892 -20.37851151 162.35056892 -21.78536987 162.36076355 C-22.51619781 162.24171158 -23.24702576 162.12265961 -24 162 C-24.66 161.01 -25.32 160.02 -26 159 C-24.625 155.3125 -24.625 155.3125 -23 152 C-23.90878906 151.50693359 -23.90878906 151.50693359 -24.8359375 151.00390625 C-39.21321507 142.84203637 -49.3607621 132.03341011 -54 116 C-57.07935954 103.42594856 -54.25060128 90.68867885 -47.78515625 79.6640625 C-42.04588135 71.0991052 -35.1914298 64.74497744 -26 60 C-25.34 60 -24.68 60 -24 60 C-24 59.34 -24 58.68 -24 58 C-22.02 57.505 -22.02 57.505 -20 57 C-20 54.03 -20 51.06 -20 48 C-19.34 48 -18.68 48 -18 48 C-18.02094727 47.34515625 -18.04189453 46.6903125 -18.06347656 46.015625 C-18.14730383 43.01057672 -18.19886895 40.00577536 -18.25 37 C-18.30027344 35.45505859 -18.30027344 35.45505859 -18.3515625 33.87890625 C-18.44389505 26.63080135 -17.5660057 21.03632663 -12.65795898 15.48095703 C-9.06154979 12.16459364 -5.64410875 11.02170393 -1 10 C-1.01160156 9.36191406 -1.02320313 8.72382813 -1.03515625 8.06640625 C-1.04417969 7.24011719 -1.05320313 6.41382813 -1.0625 5.5625 C-1.07410156 4.73878906 -1.08570313 3.91507812 -1.09765625 3.06640625 C-1 1 -1 1 0 0 Z M-11.3125 20.5 C-13.77092516 24.14211134 -14.12244527 26.81696811 -14.09765625 31.10546875 C-14.09443359 32.08837891 -14.09121094 33.07128906 -14.08789062 34.08398438 C-14.07951172 35.10814453 -14.07113281 36.13230469 -14.0625 37.1875 C-14.05798828 38.22326172 -14.05347656 39.25902344 -14.04882812 40.32617188 C-14.0370401 42.88417266 -14.02058515 45.44205733 -14 48 C-13.34 48 -12.68 48 -12 48 C-12 48.99 -12 49.98 -12 51 C-10.35 50.34 -8.7 49.68 -7 49 C-7 47.02 -7 45.04 -7 43 C-7.639375 42.835 -8.27875 42.67 -8.9375 42.5 C-11 41 -11 41 -11.875 37.125 C-12.11519325 33.79231872 -12.07765992 31.73873353 -10 29 C-6.977767 25.56935713 -4.48698132 23.15050803 0 22 C2 22.25 2 22.25 4 23 C4.804375 23.2475 5.60875 23.495 6.4375 23.75 C10.55842716 25.76020837 13.16404301 28.54616176 15.4375 32.5 C16.17213646 35.76505095 15.63340642 37.1044159 14 40 C12.9171875 40.99 12.9171875 40.99 11.8125 42 C9.68448014 43.87520783 9.68448014 43.87520783 10.125 46.625 C10.86467913 49.14405125 10.86467913 49.14405125 13 51 C13.99 51 14.98 51 16 51 C19.03237441 46.45143839 18.32893179 41.97519218 18.3125 36.625 C18.32861328 35.5834375 18.34472656 34.541875 18.36132812 33.46875 C18.45614259 26.20676202 18.45614259 26.20676202 15 20 C10.40532239 15.52950286 6.69457992 15.19246999 0.5 14.75 C-4.72594607 15.12328186 -7.76286334 16.66255496 -11.3125 20.5 Z M25 61 C23.33378575 62.1645201 23.33378575 62.1645201 22 64 C22.02286087 67.44627569 22.94867251 68.93290205 25.046875 71.67578125 C30.27384421 76.77434226 33.67545625 79.66613934 41.1875 79.625 C43.12973037 79.46672744 45.07097796 79.27601269 47 79 C42.72974335 69.48705203 34.15188136 65.0268278 25 61 Z M-22 61 C-28.77108423 64.00937077 -34.60795336 67.88123448 -40 73 C-40.33 73.99 -40.66 74.98 -41 76 C-36.96633716 78.01683142 -32.36242937 77.7339215 -28 77 C-23.69400151 74.42193028 -20.76435943 71.14653915 -18 67 C-18.08571661 64.90708843 -18.08571661 64.90708843 -19 63 C-19.99 62.34 -20.98 61.68 -22 61 Z M-45.73828125 80.4296875 C-47.1244296 82.56684501 -48.08647231 84.62174438 -49 87 C-49.31582031 87.80566406 -49.63164062 88.61132812 -49.95703125 89.44140625 C-51.89681646 95.10132749 -52.28821315 100.04359492 -52 106 C-49.11788698 106.96070434 -47.30149956 107.10581883 -44.3125 107.0625 C-43.50425781 107.05347656 -42.69601563 107.04445313 -41.86328125 107.03515625 C-41.24839844 107.02355469 -40.63351563 107.01195313 -40 107 C-39.92523438 106.20078125 -39.85046875 105.4015625 -39.7734375 104.578125 C-38.85744012 96.92685277 -36.97471579 91.15254796 -33.14453125 84.4609375 C-31.63469894 81.9512411 -31.63469894 81.9512411 -33 79 C-39.7537842 77.96510904 -39.7537842 77.96510904 -45.73828125 80.4296875 Z M36 81 C36.33773437 81.71285156 36.67546875 82.42570312 37.0234375 83.16015625 C41.07875455 91.86853939 43.21378069 99.43433175 44 109 C47.96 108.67 51.92 108.34 56 108 C56.52227239 99.25193744 55.62010188 89.89683423 50.25 82.6328125 C47.2677826 80.4686339 45.39367413 80.59157939 41.75 80.75 C40.67234375 80.78609375 39.5946875 80.8221875 38.484375 80.859375 C37.66453125 80.90578125 36.8446875 80.9521875 36 81 Z M-52 109 C-51.89367215 115.16701541 -50.42051984 119.86894749 -47.6875 125.375 C-47.39157959 125.98166504 -47.09565918 126.58833008 -46.79077148 127.21337891 C-44.99933773 130.67626921 -43.48698772 133.17990272 -40 135 C-36.50733494 135.79207889 -36.50733494 135.79207889 -32.75 136.1875 C-30.85507813 136.42533203 -30.85507813 136.42533203 -28.921875 136.66796875 C-27.47554687 136.83232422 -27.47554687 136.83232422 -26 137 C-26.56267578 136.29037109 -26.56267578 136.29037109 -27.13671875 135.56640625 C-33.38968803 127.4863729 -37.35379354 119.88845572 -40 110 C-43.96 109.67 -47.92 109.34 -52 109 Z M47.8125 110.5 C46.46091797 110.63921875 46.46091797 110.63921875 45.08203125 110.78125 C44.39496094 110.8534375 43.70789063 110.925625 43 111 C42.78085938 111.83402344 42.56171875 112.66804688 42.3359375 113.52734375 C40.2342538 120.98575787 37.72408538 126.86498778 33 133 C32.16662109 134.11181641 32.16662109 134.11181641 31.31640625 135.24609375 C30.88199219 135.82488281 30.44757813 136.40367187 30 137 C37.77575006 137.95470324 37.77575006 137.95470324 45.0234375 135.79296875 C46.64990717 133.95566042 47.81567113 132.14948 49 130 C49.45890625 129.22785156 49.9178125 128.45570313 50.390625 127.66015625 C53.5252866 121.95831489 55.08481564 116.41994997 56 110 C53.22003893 110 50.57507433 110.21297929 47.8125 110.5 Z M-38 138 C-34.84225954 141.32751146 -31.8408507 143.94568308 -27.875 146.25 C-27.02679688 146.75015625 -26.17859375 147.2503125 -25.3046875 147.765625 C-22.94877419 149.11104605 -22.94877419 149.11104605 -20 150 C-18.53465615 146.19010598 -19.44796089 143.6758821 -21 140 C-24.04213267 138.47893366 -27.28047572 138.62570662 -30.625 138.4375 C-31.33140625 138.39431641 -32.0378125 138.35113281 -32.765625 138.30664062 C-34.51018537 138.20055249 -36.25506697 138.09977111 -38 138 Z M24 140 C23.67 143.3 23.34 146.6 23 150 C29.22507516 147.99908298 34.08809359 145.36323601 39 141 C39 140.67 39 140.34 39 140 C34.05 140 29.1 140 24 140 Z " fill="#B09701" transform="translate(213,0)"/>
<path d="M0 0 C1.67542976 0.28604898 3.34385343 0.61781233 5 1 C5 3.97 5 6.94 5 10 C5.66 9.67 6.32 9.34 7 9 C7 9.66 7 10.32 7 11 C7.73863281 11.09796875 8.47726563 11.1959375 9.23828125 11.296875 C12.34691784 12.0883242 13.80750988 13.13240724 16.1875 15.25 C16.86167969 15.83265625 17.53585938 16.4153125 18.23046875 17.015625 C21.67037221 20.87317678 22.24933242 24.68741902 22.1953125 29.73828125 C22.18886719 30.80498047 22.18242187 31.87167969 22.17578125 32.97070312 C22.15064453 34.62489258 22.15064453 34.62489258 22.125 36.3125 C22.11597656 37.43462891 22.10695313 38.55675781 22.09765625 39.71289062 C22.07414486 42.47547909 22.04128155 45.23762932 22 48 C22.66 48 23.32 48 24 48 C24 50.97 24 53.94 24 57 C25.98 57.495 25.98 57.495 28 58 C28 58.66 28 59.32 28 60 C28.71542969 60.2578125 29.43085938 60.515625 30.16796875 60.78125 C41.71052557 65.74852962 50.10331995 75.02002062 54.9375 86.4375 C59.01633196 97.0424631 60.17569186 110.0875521 56.4375 121.0625 C55.31640625 123.55859375 55.31640625 123.55859375 54 126 C53.51402344 126.91910156 53.02804687 127.83820313 52.52734375 128.78515625 C46.81199811 138.60798433 38.52088866 146.48780853 28 151 C27.34 151 26.68 151 26 151 C26.515625 152.0725 27.03125 153.145 27.5625 154.25 C29.03549111 157.3138215 28.9198036 158.76746339 28 162 C20.63108899 162.07587179 13.26227814 162.12852436 5.89306641 162.16479492 C3.38456458 162.1799103 0.87608928 162.20040298 -1.63232422 162.22631836 C-5.23151182 162.26258042 -8.830351 162.27969874 -12.4296875 162.29296875 C-13.55680145 162.30845261 -14.68391541 162.32393646 -15.84518433 162.33988953 C-16.88611237 162.34011612 -17.92704041 162.34034271 -18.99951172 162.34057617 C-20.37851151 162.35056892 -20.37851151 162.35056892 -21.78536987 162.36076355 C-22.51619781 162.24171158 -23.24702576 162.12265961 -24 162 C-24.66 161.01 -25.32 160.02 -26 159 C-24.625 155.3125 -24.625 155.3125 -23 152 C-23.90878906 151.50693359 -23.90878906 151.50693359 -24.8359375 151.00390625 C-39.21321507 142.84203637 -49.3607621 132.03341011 -54 116 C-57.07935954 103.42594856 -54.25060128 90.68867885 -47.78515625 79.6640625 C-42.04588135 71.0991052 -35.1914298 64.74497744 -26 60 C-25.34 60 -24.68 60 -24 60 C-24 59.34 -24 58.68 -24 58 C-22.02 57.505 -22.02 57.505 -20 57 C-20 54.03 -20 51.06 -20 48 C-19.34 48 -18.68 48 -18 48 C-18.02094727 47.34515625 -18.04189453 46.6903125 -18.06347656 46.015625 C-18.14730383 43.01057672 -18.19886895 40.00577536 -18.25 37 C-18.30027344 35.45505859 -18.30027344 35.45505859 -18.3515625 33.87890625 C-18.44389505 26.63080135 -17.5660057 21.03632663 -12.65795898 15.48095703 C-9.06154979 12.16459364 -5.64410875 11.02170393 -1 10 C-1.01160156 9.36191406 -1.02320313 8.72382813 -1.03515625 8.06640625 C-1.04417969 7.24011719 -1.05320313 6.41382813 -1.0625 5.5625 C-1.07410156 4.73878906 -1.08570313 3.91507812 -1.09765625 3.06640625 C-1 1 -1 1 0 0 Z M-11.3125 20.5 C-13.77092516 24.14211134 -14.12244527 26.81696811 -14.09765625 31.10546875 C-14.09443359 32.08837891 -14.09121094 33.07128906 -14.08789062 34.08398438 C-14.07951172 35.10814453 -14.07113281 36.13230469 -14.0625 37.1875 C-14.05798828 38.22326172 -14.05347656 39.25902344 -14.04882812 40.32617188 C-14.0370401 42.88417266 -14.02058515 45.44205733 -14 48 C-13.34 48 -12.68 48 -12 48 C-12 48.99 -12 49.98 -12 51 C-10.35 50.34 -8.7 49.68 -7 49 C-7 47.02 -7 45.04 -7 43 C-7.639375 42.835 -8.27875 42.67 -8.9375 42.5 C-11 41 -11 41 -11.875 37.125 C-12.11519325 33.79231872 -12.07765992 31.73873353 -10 29 C-6.977767 25.56935713 -4.48698132 23.15050803 0 22 C2 22.25 2 22.25 4 23 C4.804375 23.2475 5.60875 23.495 6.4375 23.75 C10.55842716 25.76020837 13.16404301 28.54616176 15.4375 32.5 C16.17213646 35.76505095 15.63340642 37.1044159 14 40 C12.9171875 40.99 12.9171875 40.99 11.8125 42 C9.68448014 43.87520783 9.68448014 43.87520783 10.125 46.625 C10.86467913 49.14405125 10.86467913 49.14405125 13 51 C13.99 51 14.98 51 16 51 C19.03237441 46.45143839 18.32893179 41.97519218 18.3125 36.625 C18.32861328 35.5834375 18.34472656 34.541875 18.36132812 33.46875 C18.45614259 26.20676202 18.45614259 26.20676202 15 20 C10.40532239 15.52950286 6.69457992 15.19246999 0.5 14.75 C-4.72594607 15.12328186 -7.76286334 16.66255496 -11.3125 20.5 Z M-22 61 C-28.77108423 64.00937077 -34.60795336 67.88123448 -40 73 C-40.33 73.99 -40.66 74.98 -41 76 C-40.34 76.33 -39.68 76.66 -39 77 C-39.92167969 77.37382813 -40.84335938 77.74765625 -41.79296875 78.1328125 C-45.56605661 80.32956767 -46.5008327 81.95867338 -48.3125 85.875 C-48.80363281 86.90367188 -49.29476562 87.93234375 -49.80078125 88.9921875 C-51.53655269 93.34575106 -52.13215002 97.14594835 -52.0625 101.8125 C-52.05347656 102.60269531 -52.04445312 103.39289063 -52.03515625 104.20703125 C-52.02355469 104.79871094 -52.01195312 105.39039063 -52 106 C-49.24921116 106.91692961 -47.64051087 107.10886083 -44.8125 107.0625 C-43.554375 107.041875 -42.29625 107.02125 -41 107 C-41 107.99 -41 108.98 -41 110 C-44.63 109.67 -48.26 109.34 -52 109 C-51.89367215 115.16701541 -50.42051984 119.86894749 -47.6875 125.375 C-47.39157959 125.98166504 -47.09565918 126.58833008 -46.79077148 127.21337891 C-45.00221626 130.67070494 -43.41778033 133.08113278 -40 135 C-37.65744063 135.77314488 -37.65744063 135.77314488 -35.25 136.1875 C-34.05117187 136.42533203 -34.05117187 136.42533203 -32.828125 136.66796875 C-31.92320312 136.83232422 -31.92320312 136.83232422 -31 137 C-33.46278801 138.231394 -35.2795055 138.07159196 -38 138 C-33.16682283 143.47760079 -26.95109964 147.68296679 -20 150 C-18.62302534 146.1750704 -19.37916257 142.94116796 -20 139 C-19.12581924 138.9845388 -19.12581924 138.9845388 -18.23397827 138.96876526 C-12.10055886 138.85954754 -5.96725295 138.74506241 0.16601562 138.62768555 C2.44691566 138.58470134 4.72784038 138.54300535 7.00878906 138.50268555 C28.10558195 140.01863409 28.10558195 140.01863409 46.5625 134.0625 C47.87447316 132.14510749 47.87447316 132.14510749 49 130 C49.45761719 129.22914063 49.91523438 128.45828125 50.38671875 127.6640625 C53.56009999 121.89923814 54.98161976 116.48060151 56 110 C50.06 110.495 50.06 110.495 44 111 C44.495 110.01 44.495 110.01 45 109 C47.50390625 108.5859375 47.50390625 108.5859375 50.5625 108.375 C51.57441406 108.30023438 52.58632813 108.22546875 53.62890625 108.1484375 C54.41136719 108.09945312 55.19382812 108.05046875 56 108 C56.70336626 99.34468744 55.54913774 89.82360083 50.28125 82.6640625 C47.23236415 80.44004645 44.99143646 80.39965746 41.25 80.25 C40.07953125 80.19328125 38.9090625 80.1365625 37.703125 80.078125 C36.81109375 80.05234375 35.9190625 80.0265625 35 80 C38.96 79.67 42.92 79.34 47 79 C42.25643249 69.51286498 34.45673243 65.16096227 25 61 C23.43750191 62.31201173 23.43750191 62.31201173 22 64 C22 64.99 22 65.98 22 67 C21.34 67 20.68 67 20 67 C20 67.99 20 68.98 20 70 C8.12 70 -3.76 70 -16 70 C-16.66 68.02 -17.32 66.04 -18 64 C-19.993252 62.12689112 -19.993252 62.12689112 -22 61 Z M24 140 C23.67 143.3 23.34 146.6 23 150 C29.22507516 147.99908298 34.08809359 145.36323601 39 141 C39 140.67 39 140.34 39 140 C34.05 140 29.1 140 24 140 Z " fill="#77680D" transform="translate(213,0)"/>
<path d="M0 0 C4.54914978 -0.02517837 9.09825688 -0.04307982 13.64746094 -0.05493164 C15.18718169 -0.05988508 16.72689794 -0.06664968 18.26660156 -0.07543945 C28.88821417 -0.13444841 39.40769305 0.19998499 50 1 C52.27847106 8.99216258 54.0504434 16.36010406 54.01953125 24.71875 C54.01671143 25.70810547 54.0138916 26.69746094 54.01098633 27.71679688 C54.0055481 28.84698242 54.0055481 28.84698242 54 30 C47.34717637 30.02550903 40.69436551 30.04293326 34.04150391 30.05493164 C31.78173349 30.05993756 29.52196627 30.06674429 27.26220703 30.07543945 C24.00031745 30.08766974 20.73847096 30.09326587 17.4765625 30.09765625 C16.47823395 30.10281754 15.4799054 30.10797882 14.45132446 30.11329651 C8.24050096 30.11378504 2.16637985 29.74422917 -4 29 C-4.40999815 19.93174257 -4.16108249 8.32216499 0 0 Z " fill="#EBCD02" transform="translate(190,80)"/>
<path d="M0 0 C18.48 0 36.96 0 56 0 C56 5.71938527 55.61529235 9.28387924 54.125 14.625 C53.60292969 16.53152344 53.60292969 16.53152344 53.0703125 18.4765625 C52 22 52 22 50 27 C35.48 27 20.96 27 6 27 C1.7904184 16.47604599 0 11.19374305 0 0 Z " fill="#ECCE03" transform="translate(187,111)"/>
<path d="M0 0 C1.65 0 3.3 0 5 0 C4.34 0.66 3.68 1.32 3 2 C23.295 2.495 23.295 2.495 44 3 C44.9681648 6.8726592 45.07622858 10.03611362 45 14 C45.99 14.33 46.98 14.66 48 15 C49.42446157 17.6352539 50.16845087 19.19404974 49.546875 22.16796875 C49.36640625 22.77253906 49.1859375 23.37710938 49 24 C41.63108899 24.07587179 34.26227814 24.12852436 26.89306641 24.16479492 C24.38456458 24.1799103 21.87608928 24.20040298 19.36767578 24.22631836 C15.76848818 24.26258042 12.169649 24.27969874 8.5703125 24.29296875 C7.44319855 24.30845261 6.31608459 24.32393646 5.15481567 24.33988953 C4.11388763 24.34011612 3.07295959 24.34034271 2.00048828 24.34057617 C1.08115509 24.34723801 0.1618219 24.35389984 -0.78536987 24.36076355 C-1.51619781 24.24171158 -2.24702576 24.12265961 -3 24 C-3.66 23.01 -4.32 22.02 -5 21 C-3.74093486 17.41166434 -2.70537829 14.70537829 0 12 C1.66617936 8.06175789 0.61407401 4.09382676 0 0 Z " fill="#695B02" transform="translate(192,138)"/>
<path d="M0 0 C3.40991574 2.94492723 6.11913726 5.48557843 7 10 C5.81485607 13.11879981 4.75182606 15.32872674 2.25 17.5625 C0.7265922 18.99692416 0.7265922 18.99692416 1 21.5 C2.29915377 24.74788441 3.91819483 25.49860774 7 27 C4.04502142 27.85031102 1.41081128 28.12847103 -1.66015625 28.1328125 C-2.9740332 28.13474609 -2.9740332 28.13474609 -4.31445312 28.13671875 C-5.22130859 28.13285156 -6.12816406 28.12898438 -7.0625 28.125 C-7.97322266 28.12886719 -8.88394531 28.13273437 -9.82226562 28.13671875 C-10.69689453 28.13542969 -11.57152344 28.13414063 -12.47265625 28.1328125 C-13.26937744 28.13168457 -14.06609863 28.13055664 -14.88696289 28.12939453 C-17 28 -17 28 -20 27 C-19.67 26.01 -19.34 25.02 -19 24 C-18.34 24 -17.68 24 -17 24 C-17.97130267 19.30238707 -17.97130267 19.30238707 -20.5625 15.4375 C-22.83665132 13.16334868 -22.87432723 11.14181928 -23 8 C-20.83606493 3.07103677 -17.17791503 -0.83136267 -12.4375 -3.375 C-7.67155991 -4.59703592 -4.14055781 -2.36603304 0 0 Z " fill="#726407" transform="translate(223,25)"/>
<path d="M0 0 C0.66 0.33 1.32 0.66 2 1 C2 1.99 2 2.98 2 4 C3.32 4.33 4.64 4.66 6 5 C6 5.66 6 6.32 6 7 C7.07314453 7.38671875 7.07314453 7.38671875 8.16796875 7.78125 C19.71052557 12.74852962 28.10331995 22.02002062 32.9375 33.4375 C37.01633196 44.0424631 38.17569186 57.0875521 34.4375 68.0625 C33.31640625 70.55859375 33.31640625 70.55859375 32 73 C31.51402344 73.91910156 31.02804687 74.83820313 30.52734375 75.78515625 C24.27502349 86.53086979 15.34027355 93.9795664 4 99 C3.34 99 2.68 99 2 99 C2 98.01 2 97.02 2 96 C2.67546875 95.67386719 3.3509375 95.34773438 4.046875 95.01171875 C4.93890625 94.57472656 5.8309375 94.13773437 6.75 93.6875 C8.07257813 93.04361328 8.07257813 93.04361328 9.421875 92.38671875 C12.34358331 90.8979892 12.34358331 90.8979892 16 88 C9.07 87.505 9.07 87.505 2 87 C1.67 87.66 1.34 88.32 1 89 C-19.295 88.505 -19.295 88.505 -40 88 C-40.33 87.34 -40.66 86.68 -41 86 C-38.2937563 85.09791877 -36.76149014 84.87772401 -33.98754883 84.88647461 C-33.18694534 84.88655014 -32.38634186 84.88662567 -31.56147766 84.88670349 C-30.27227669 84.89444542 -30.27227669 84.89444542 -28.95703125 84.90234375 C-28.0734343 84.9037587 -27.18983734 84.90517365 -26.27946472 84.90663147 C-23.45710872 84.91222931 -20.63483203 84.92478139 -17.8125 84.9375 C-15.89908969 84.94251528 -13.98567813 84.94707814 -12.07226562 84.95117188 C-7.38147986 84.96219803 -2.69075337 84.97946117 2 85 C2.33 84.34 2.66 83.68 3 83 C3 83.66 3 84.32 3 85 C3.77537109 84.75830078 3.77537109 84.75830078 4.56640625 84.51171875 C7.70335587 83.85210334 10.73414179 83.88429351 13.9375 83.8125 C19.47168877 83.48395192 19.47168877 83.48395192 24.0625 80.5625 C25.10057503 78.90959876 25.10057503 78.90959876 26 77 C26.65355469 75.85917969 26.65355469 75.85917969 27.3203125 74.6953125 C30.3001025 69.22952627 31.9149535 64.11571666 33 58 C29.37 58 25.74 58 22 58 C22.33 57.01 22.66 56.02 23 55 C26.63 55 30.26 55 34 55 C32.88281022 41.97121517 32.88281022 41.97121517 28 30 C23.939337 28.64644567 19.97139006 28.6214004 15.71484375 28.37890625 C13 28 13 28 11 26 C15.62 26 20.24 26 25 26 C18.88230505 18.60778527 12.83325976 12.97496689 4 9 C4 8.01 4 7.02 4 6 C2.68 5.34 1.36 4.68 0 4 C0 2.68 0 1.36 0 0 Z " fill="#867E32" transform="translate(235,53)"/>
<path d="M0 0 C0.66 0.66 1.32 1.32 2 2 C1.67222708 4.54700611 1.24442029 6.93944676 0.6875 9.4375 C-0.73754718 16.00038546 -1.38365737 22.2202311 -2 29 C27.205 29.495 27.205 29.495 57 30 C55.86855452 43.57734573 55.86855452 43.57734573 54.0625 49.125 C53.72347656 50.20007813 53.38445312 51.27515625 53.03515625 52.3828125 C52 55 52 55 50 57 C50.62664746 51.48550234 51.91746515 46.26194019 53.30078125 40.890625 C54.09866767 37.59210014 54.61719844 34.36865369 55 31 C54.3901123 31.0707373 53.78022461 31.14147461 53.15185547 31.21435547 C45.50238472 32.01342814 37.89629858 32.1538141 30.21240234 32.13037109 C28.13501632 32.12502577 26.05784813 32.13034191 23.98046875 32.13671875 C15.61154767 32.14044059 7.33323517 31.78453576 -1 31 C0.00869099 38.83647556 1.43554282 46.01823013 4.1953125 53.44140625 C5 56 5 56 5 60 C1.37 59.34 -2.26 58.68 -6 58 C-4.68 57.34 -3.36 56.68 -2 56 C-2.45890625 55.5153125 -2.9178125 55.030625 -3.390625 54.53125 C-10.95147217 46.27150099 -13.52548643 38.8878597 -16 28 C-11.71 28.33 -7.42 28.66 -3 29 C-3.05220703 27.49373047 -3.05220703 27.49373047 -3.10546875 25.95703125 C-3.32156832 16.79080769 -2.55110581 8.86812973 0 0 Z " fill="#AE9200" transform="translate(188,80)"/>
<path d="M0 0 C1.34149109 -0.00472824 1.34149109 -0.00472824 2.71008301 -0.009552 C3.6778064 -0.00752777 4.64552979 -0.00550354 5.64257812 -0.00341797 C6.6338269 -0.00437469 7.62507568 -0.00533142 8.6463623 -0.00631714 C10.74454817 -0.00699839 12.84273614 -0.0051479 14.94091797 -0.00097656 C18.16052973 0.00437244 21.38000198 -0.00092341 24.59960938 -0.00732422 C26.63476593 -0.00666343 28.66992241 -0.00538225 30.70507812 -0.00341797 C32.15666321 -0.00645432 32.15666321 -0.00645432 33.63757324 -0.009552 C34.53190063 -0.00639984 35.42622803 -0.00324768 36.34765625 0 C37.13660278 0.00079559 37.92554932 0.00159119 38.73840332 0.00241089 C40.67382812 0.12939453 40.67382812 0.12939453 42.67382812 1.12939453 C41.34049479 3.7960612 40.00716146 6.46272786 38.67382812 9.12939453 C38.01382813 9.12939453 37.35382813 9.12939453 36.67382812 9.12939453 C36.67382812 10.11939453 36.67382812 11.10939453 36.67382812 12.12939453 C31.63866103 12.32758444 26.60577406 12.47250676 21.56762695 12.56884766 C19.85531059 12.6090117 18.14326749 12.66355851 16.43188477 12.73291016 C2.11127311 13.29858056 2.11127311 13.29858056 -1.51611328 10.34814453 C-2.76150815 8.29916583 -3.5327324 6.37972457 -4.32617188 4.12939453 C-4.98617187 3.79939453 -5.64617187 3.46939453 -6.32617188 3.12939453 C-6.32617188 2.46939453 -6.32617188 1.80939453 -6.32617188 1.12939453 C-3.98572809 -0.04082736 -2.60711473 0.00262908 0 0 Z " fill="#635601" transform="translate(196.326171875,57.87060546875)"/>
<path d="M0 0 C3.51256394 2.23526796 5.24069824 3.68120837 6.25390625 7.796875 C7.07730808 12.96263805 6.91675499 16.35740436 3.75 20.75 C-0.27356076 24.3903645 -3.6888863 25.49677111 -8.99609375 25.28125 C-12.98152897 24.34187532 -15.61231811 21.78019408 -18.25 18.75 C-19.98704155 15.2759169 -19.71041616 11.54843331 -19.25 7.75 C-15.10642554 -0.53714892 -8.81078043 -3.3887617 0 0 Z M-11.25 7.75 C-12.27624415 10.53551984 -12.41996001 12.13814398 -11.625 15 C-10.33210184 16.94843069 -10.33210184 16.94843069 -7.875 17.6875 C-5.22362744 17.94280408 -5.22362744 17.94280408 -2.9375 16.6875 C-0.99480398 14.78727932 -0.99480398 14.78727932 -0.6875 11.75 C-0.94123666 8.55640843 -0.94123666 8.55640843 -3.6875 6.875 C-7.12027123 5.3679297 -8.07873058 5.66885444 -11.25 7.75 Z " fill="#020202" transform="translate(145.25,169.25)"/>
<path d="M0 0 C4.41123512 0.04005012 7.30578813 0.25020257 10.75 3.25 C13.33858285 7.13287427 12.39054323 8.76619742 11.75 13.25 C12.74 14.735 12.74 14.735 13.75 16.25 C13.55012227 19.44804374 13.32573702 21.52407072 11.3125 24.0625 C7.95597646 26.61345789 5.34475637 26.3841268 1.1875 26.375 C-0.57787109 26.37886719 -0.57787109 26.37886719 -2.37890625 26.3828125 C-5.25 26.25 -5.25 26.25 -6.25 25.25 C-6.34946453 23.48140807 -6.38080217 21.70888549 -6.3828125 19.9375 C-6.38410156 18.86242187 -6.38539063 17.78734375 -6.38671875 16.6796875 C-6.38091797 14.98199219 -6.38091797 14.98199219 -6.375 13.25 C-6.37886719 12.11820313 -6.38273438 10.98640625 -6.38671875 9.8203125 C-6.38542969 8.74523437 -6.38414062 7.67015625 -6.3828125 6.5625 C-6.38168457 5.56863281 -6.38055664 4.57476562 -6.37939453 3.55078125 C-6.13740615 -0.75204614 -3.78409822 0.06070746 0 0 Z M0.75 7.25 C0.75 8.24 0.75 9.23 0.75 10.25 C2.07 10.25 3.39 10.25 4.75 10.25 C4.42 9.26 4.09 8.27 3.75 7.25 C3.75 7.91 3.75 8.57 3.75 9.25 C3.09 9.25 2.43 9.25 1.75 9.25 C1.42 8.59 1.09 7.93 0.75 7.25 Z M0.75 16.25 C0.75 17.24 0.75 18.23 0.75 19.25 C2.4 19.25 4.05 19.25 5.75 19.25 C5.75 18.26 5.75 17.27 5.75 16.25 C4.1 16.25 2.45 16.25 0.75 16.25 Z " fill="#020202" transform="translate(178.25,167.75)"/>
<path d="M0 0 C4.70232084 0.06700198 7.95378126 0.33243217 11.8125 3.25 C14.93352125 7.2513093 16.15984856 9.79185032 15.8125 14.875 C15.12095172 18.9343884 13.9053407 21.41489602 10.8125 24.25 C7.11427398 26.06111754 4.16123936 26.49842721 0.0625 26.4375 C-0.90171875 26.43105469 -1.8659375 26.42460937 -2.859375 26.41796875 C-5.1875 26.25 -5.1875 26.25 -6.1875 25.25 C-6.28696453 23.48140807 -6.31830217 21.70888549 -6.3203125 19.9375 C-6.32160156 18.86242187 -6.32289063 17.78734375 -6.32421875 16.6796875 C-6.31841797 14.98199219 -6.31841797 14.98199219 -6.3125 13.25 C-6.31636719 12.11820313 -6.32023438 10.98640625 -6.32421875 9.8203125 C-6.32292969 8.74523437 -6.32164062 7.67015625 -6.3203125 6.5625 C-6.31918457 5.56863281 -6.31805664 4.57476562 -6.31689453 3.55078125 C-6.07612497 -0.73037405 -3.77108969 0.06107028 0 0 Z M1.8125 7.25 C0.52637324 8.30978933 0.52637324 8.30978933 0.71484375 10.75390625 C0.72644531 11.76324219 0.73804688 12.77257812 0.75 13.8125 C0.75902344 14.82441406 0.76804688 15.83632812 0.77734375 16.87890625 C0.78894531 17.66136719 0.80054688 18.44382813 0.8125 19.25 C4.63063447 18.97459296 4.63063447 18.97459296 7.8125 17.25 C7.88398199 15.89756083 7.89649454 14.54165633 7.875 13.1875 C7.854375 11.888125 7.83375 10.58875 7.8125 9.25 C5.8325 8.59 3.8525 7.93 1.8125 7.25 Z " fill="#020202" transform="translate(255.1875,167.75)"/>
<path d="M0 0 C1.6874269 0.00015917 3.37485866 0.00585622 5.06225586 0.01586914 C6.39189613 0.01799156 6.39189613 0.01799156 7.74839783 0.02015686 C10.59133215 0.02577324 13.43418892 0.03832848 16.27709961 0.05102539 C18.19962452 0.05603828 20.12215065 0.06060155 22.04467773 0.06469727 C26.7680151 0.07574798 31.49129419 0.09302356 36.21459961 0.11352539 C36.88614894 1.40266026 37.5516882 2.69492743 38.21459961 3.98852539 C38.58584961 4.70782227 38.95709961 5.42711914 39.33959961 6.16821289 C40.21459961 8.11352539 40.21459961 8.11352539 40.21459961 10.11352539 C24.18597057 10.26187523 8.22522826 9.87506826 -7.78540039 9.11352539 C-7.30958841 7.79980552 -6.8296489 6.48757993 -6.34790039 5.17602539 C-6.08106445 4.44512695 -5.81422852 3.71422852 -5.53930664 2.96118164 C-4.17581073 -0.38044305 -4.03066243 0.12088088 0 0 Z " fill="#EDCE04" transform="translate(198.785400390625,68.886474609375)"/>
<path d="M0 0 C0.82951172 0.33451172 0.82951172 0.33451172 1.67578125 0.67578125 C0.68578125 1.33578125 -0.30421875 1.99578125 -1.32421875 2.67578125 C-6.74697069 6.32464993 -11.91301113 9.82345286 -16.32421875 14.67578125 C-15.00421875 15.66578125 -13.68421875 16.65578125 -12.32421875 17.67578125 C-12.91589844 17.76472656 -13.50757813 17.85367188 -14.1171875 17.9453125 C-17.9497395 18.81435773 -20.53277475 19.6355977 -22.96484375 22.83203125 C-26.51443536 30.10227913 -27.54313929 37.69011806 -28.32421875 45.67578125 C-24.69421875 46.00578125 -21.06421875 46.33578125 -17.32421875 46.67578125 C-17.32421875 47.66578125 -17.32421875 48.65578125 -17.32421875 49.67578125 C-20.95421875 49.34578125 -24.58421875 49.01578125 -28.32421875 48.67578125 C-25.38185838 62.93505782 -25.38185838 62.93505782 -16.32421875 73.67578125 C-13.23862631 74.24718726 -10.1525393 74.62691214 -7.0390625 75.015625 C-4.32421875 75.67578125 -4.32421875 75.67578125 -2.32421875 78.67578125 C-5.95421875 78.67578125 -9.58421875 78.67578125 -13.32421875 78.67578125 C-6.78307647 83.44029897 -6.78307647 83.44029897 0.23828125 87.42578125 C2.67578125 88.67578125 2.67578125 88.67578125 3.67578125 91.67578125 C-6.99586077 89.77860045 -16.8464537 81.02722104 -22.9765625 72.33203125 C-30.48360197 60.43823766 -33.2493804 47.57166145 -30.19921875 33.73828125 C-26.19787152 19.27044706 -17.32194969 8.75946784 -4.8046875 0.7578125 C-2.32421875 -0.32421875 -2.32421875 -0.32421875 0 0 Z " fill="#888034" transform="translate(189.32421875,60.32421875)"/>
<path d="M0 0 C1.27875 0.00257813 2.5575 0.00515625 3.875 0.0078125 C5.15375 0.00523437 6.4325 0.00265625 7.75 0 C10.875 0.1328125 10.875 0.1328125 11.875 1.1328125 C11.91580783 3.13239614 11.91754356 5.13326504 11.875 7.1328125 C8.905 7.1328125 5.935 7.1328125 2.875 7.1328125 C2.875 7.7928125 2.875 8.4528125 2.875 9.1328125 C4.5765625 9.101875 4.5765625 9.101875 6.3125 9.0703125 C9.875 9.1328125 9.875 9.1328125 10.875 10.1328125 C10.91580783 12.13239614 10.91754356 14.13326504 10.875 16.1328125 C8.235 16.1328125 5.595 16.1328125 2.875 16.1328125 C2.875 17.1228125 2.875 18.1128125 2.875 19.1328125 C5.845 19.1328125 8.815 19.1328125 11.875 19.1328125 C11.91754356 21.13235996 11.91580783 23.13322886 11.875 25.1328125 C10.875 26.1328125 10.875 26.1328125 7.75 26.265625 C6.47125 26.26304687 5.1925 26.26046875 3.875 26.2578125 C2.59625 26.26039063 1.3175 26.26296875 0 26.265625 C-3.125 26.1328125 -3.125 26.1328125 -4.125 25.1328125 C-4.22446453 23.36422057 -4.25580217 21.59169799 -4.2578125 19.8203125 C-4.25910156 18.74523437 -4.26039063 17.67015625 -4.26171875 16.5625 C-4.25591797 14.86480469 -4.25591797 14.86480469 -4.25 13.1328125 C-4.25386719 12.00101563 -4.25773438 10.86921875 -4.26171875 9.703125 C-4.26042969 8.62804687 -4.25914062 7.55296875 -4.2578125 6.4453125 C-4.25668457 5.45144531 -4.25555664 4.45757812 -4.25439453 3.43359375 C-4.05384855 -0.13234076 -3.65661254 0.15540603 0 0 Z " fill="#030302" transform="translate(216.125,167.8671875)"/>
<path d="M0 0 C1.134375 0.020625 2.26875 0.04125 3.4375 0.0625 C3.23253906 0.8875 3.02757812 1.7125 2.81640625 2.5625 C0.66726414 11.77604703 -0.20731271 20.63166501 -0.5625 30.0625 C-1.97873216 30.11697047 -3.39558191 30.15550508 -4.8125 30.1875 C-5.99585938 30.22230469 -5.99585938 30.22230469 -7.203125 30.2578125 C-9.76981941 30.0453378 -11.3541067 29.34904105 -13.5625 28.0625 C-12.9408559 20.42515817 -10.04730732 0.17626855 0 0 Z " fill="#EBCD02" transform="translate(185.5625,78.9375)"/>
<path d="M0 0 C3.1875 -0.5 3.1875 -0.5 7 0 C12.25884349 5.10540243 14.73173463 13.73108147 15.1796875 20.859375 C15.18641335 23.24032733 15.10194764 25.62122176 15 28 C11.04 28 7.08 28 3 28 C2.86722656 26.56527344 2.73445312 25.13054687 2.59765625 23.65234375 C2.41935985 21.7473875 2.24096947 19.84244004 2.0625 17.9375 C1.97548828 16.99455078 1.88847656 16.05160156 1.79882812 15.08007812 C1.32357317 10.02829393 0.77210932 5.01523261 0 0 Z " fill="#EACD0D" transform="translate(242,81)"/>
<path d="M0 0 C1.81242052 -0.02687279 3.62495233 -0.04633715 5.4375 -0.0625 C6.44683594 -0.07410156 7.45617187 -0.08570313 8.49609375 -0.09765625 C11 0 11 0 12 1 C12.04080783 2.99958364 12.04254356 5.00045254 12 7 C11.01 7 10.02 7 9 7 C9 10.96 9 14.92 9 19 C9.99 19 10.98 19 12 19 C13.125 23.75 13.125 23.75 12 26 C10.02090602 26.02686553 8.04171029 26.04633375 6.0625 26.0625 C4.96035156 26.07410156 3.85820312 26.08570313 2.72265625 26.09765625 C0 26 0 26 -1 25 C-0.91062197 23.47480724 -0.75462854 21.95318071 -0.5625 20.4375 C-0.40974609 19.19806641 -0.40974609 19.19806641 -0.25390625 17.93359375 C-0.17011719 17.29550781 -0.08632813 16.65742188 0 16 C0.33 16 0.66 16 1 16 C1 14.35 1 12.7 1 11 C0.67 11 0.34 11 0 11 C-0.19491452 9.54263913 -0.38069358 8.08405407 -0.5625 6.625 C-0.66691406 5.81289062 -0.77132813 5.00078125 -0.87890625 4.1640625 C-1 2 -1 2 0 0 Z " fill="#020202" transform="translate(291,168)"/>
<path d="M0 0 C3.96 0 7.92 0 12 0 C12.14695313 1.32451172 12.14695313 1.32451172 12.296875 2.67578125 C13.18754626 9.82418595 14.486214 16.20686373 17.1953125 22.890625 C18 25 18 25 18 27 C12.69186538 26.35355479 10.91256122 24.24284667 7.640625 20.23828125 C2.95582991 13.84688223 1.29632501 7.77795007 0 0 Z " fill="#EACD04" transform="translate(173,110)"/>
<path d="M0 0 C3.63 0 7.26 0 11 0 C10.36860134 11.36517586 4.76539894 19.02264228 -3 27 C-4.32 26.67 -5.64 26.34 -7 26 C-6.55011719 25.04996094 -6.10023438 24.09992188 -5.63671875 23.12109375 C-3.68623484 18.56996463 -2.75890864 13.9050189 -1.8125 9.0625 C-1.63525391 8.18787109 -1.45800781 7.31324219 -1.27539062 6.41210938 C-0.8435182 4.2760917 -0.42080945 2.13822467 0 0 Z " fill="#E9CC0B" transform="translate(245,111)"/>
<path d="M0 0 C3.875 1.75 3.875 1.75 5 4 C5.5775 3.71125 6.155 3.4225 6.75 3.125 C8.83333333 2.08333333 10.91666667 1.04166667 13 0 C14.30459914 2.60919828 14.1326594 4.58942615 14.125 7.5 C14.12757813 8.4796875 14.13015625 9.459375 14.1328125 10.46875 C14 13 14 13 13 15 C12.39671875 14.91621094 11.7934375 14.83242187 11.171875 14.74609375 C10.37265625 14.64425781 9.5734375 14.54242188 8.75 14.4375 C7.96109375 14.33308594 7.1721875 14.22867188 6.359375 14.12109375 C3.9934363 13.99966312 2.26905791 14.40261528 0 15 C-1 14 -1 14 -1.1328125 11.09375 C-1.13023437 9.9078125 -1.12765625 8.721875 -1.125 7.5 C-1.12757813 6.3140625 -1.13015625 5.128125 -1.1328125 3.90625 C-1 1 -1 1 0 0 Z " fill="#020202" transform="translate(220,204)"/>
<path d="M0 0 C0.66 0 1.32 0 2 0 C2 0.66 2 1.32 2 2 C2.62196259 1.98525131 3.24392517 1.97050262 3.88473511 1.95530701 C10.34050607 1.80323701 16.79641019 1.65840069 23.25244141 1.51782227 C25.6639419 1.46435255 28.07540181 1.40901946 30.48681641 1.35180664 C33.94685106 1.27003435 37.40697488 1.19489781 40.8671875 1.12109375 C42.49223709 1.08054115 42.49223709 1.08054115 44.15011597 1.03916931 C45.65144577 1.00902489 45.65144577 1.00902489 47.18310547 0.97827148 C48.06690887 0.95828598 48.95071228 0.93830048 49.86129761 0.91770935 C52 1 52 1 54 2 C53.67 2.99 53.34 3.98 53 5 C45.63108899 5.07587179 38.26227814 5.12852436 30.89306641 5.16479492 C28.38456458 5.1799103 25.87608928 5.20040298 23.36767578 5.22631836 C19.76848818 5.26258042 16.169649 5.27969874 12.5703125 5.29296875 C11.44319855 5.30845261 10.31608459 5.32393646 9.15481567 5.33988953 C8.11388763 5.34011612 7.07295959 5.34034271 6.00048828 5.34057617 C5.08115509 5.34723801 4.1618219 5.35389984 3.21463013 5.36076355 C2.48380219 5.24171158 1.75297424 5.12265961 1 5 C0.34 4.01 -0.32 3.02 -1 2 C-0.67 1.34 -0.34 0.68 0 0 Z " fill="#5C520B" transform="translate(188,157)"/>
<path d="M0 0 C0.9075 0.165 1.815 0.33 2.75 0.5 C5.92775121 0.9888848 7.91658201 0.70478125 11 0 C12 1 12 1 12.1328125 3.65234375 C12.13023437 4.73644531 12.12765625 5.82054687 12.125 6.9375 C12.12757813 8.01902344 12.13015625 9.10054687 12.1328125 10.21484375 C12 13 12 13 11 15 C10.113125 14.814375 9.22625 14.62875 8.3125 14.4375 C5.13549782 14.01789594 3.07591077 14.29693468 0 15 C-1 14 -1 14 -1.1328125 11.09375 C-1.13023437 9.9078125 -1.12765625 8.721875 -1.125 7.5 C-1.12757813 6.3140625 -1.13015625 5.128125 -1.1328125 3.90625 C-1 1 -1 1 0 0 Z " fill="#020202" transform="translate(181,204)"/>
<path d="M0 0 C0.99 0.495 0.99 0.495 2 1 C2 1.99 2 2.98 2 4 C3.32 4.33 4.64 4.66 6 5 C6 5.66 6 6.32 6 7 C6.71542969 7.2578125 7.43085938 7.515625 8.16796875 7.78125 C19.68377468 12.73701752 28.07907283 21.99714493 32.9375 33.375 C33.6618038 35.23609249 34.35435707 37.1101782 35 39 C35.24878906 39.71414062 35.49757813 40.42828125 35.75390625 41.1640625 C36 43 36 43 34 46 C33.82984375 45.443125 33.6596875 44.88625 33.484375 44.3125 C32.97552304 42.71015766 32.438312 41.11665105 31.87890625 39.53125 C31 37 31 37 30.40234375 34.65625 C29.56424036 32.12820042 29.00146804 30.78620718 27 29 C23.31083222 28.27526408 19.87461955 28.12500079 16.1171875 28.1328125 C13 28 13 28 11 26 C15.62 26 20.24 26 25 26 C18.88230505 18.60778527 12.83325976 12.97496689 4 9 C4 8.01 4 7.02 4 6 C2.68 5.34 1.36 4.68 0 4 C0 2.68 0 1.36 0 0 Z " fill="#878324" transform="translate(235,53)"/>
<path d="M0 0 C2.375 1.5625 2.375 1.5625 4 4 C4.63858096 9.01742187 3.96668302 11.92081084 1 16 C-1.97 15.67 -4.94 15.34 -8 15 C-11.3084654 7.89292617 -11.3084654 7.89292617 -9.8125 3.5625 C-6.99234568 -0.42461473 -4.74845528 -0.47484553 0 0 Z M-5 5 C-5.33 6.32 -5.66 7.64 -6 9 C-3.525 9.495 -3.525 9.495 -1 10 C-0.67 8.68 -0.34 7.36 0 6 C-1.65 5.67 -3.3 5.34 -5 5 Z " fill="#020202" transform="translate(209,204)"/>
<path d="M0 0 C-0.33 0.66 -0.66 1.32 -1 2 C1.97 2.495 1.97 2.495 5 3 C2.65866315 3.63035992 0.48359804 4.05493638 -1.9375 4.3125 C-5.62330913 5.13992654 -7.33990701 6.33990701 -10 9 C-11.64516204 12.42832168 -12.27476287 15.29772464 -12.4140625 19.08203125 C-12.45273438 20.01337891 -12.49140625 20.94472656 -12.53125 21.90429688 C-12.57765625 23.34385742 -12.57765625 23.34385742 -12.625 24.8125 C-12.68300781 26.28106445 -12.68300781 26.28106445 -12.7421875 27.77929688 C-12.83610816 30.18601374 -12.92178201 32.59273012 -13 35 C-13.33 35 -13.66 35 -14 35 C-14.33 28.73 -14.66 22.46 -15 16 C-15.33 21.94 -15.66 27.88 -16 34 C-16.33 34 -16.66 34 -17 34 C-17.1174875 30.66696997 -17.18767324 27.33448163 -17.25 24 C-17.28351563 23.06542969 -17.31703125 22.13085938 -17.3515625 21.16796875 C-17.4484917 14.23753113 -16.43008632 8.60280417 -11.51635742 3.44165039 C-7.6462817 0.06109407 -4.98483404 -1.54701746 0 0 Z " fill="#807013" transform="translate(212,12)"/>
<path d="M0 0 C2.97 0 5.94 0 9 0 C10 4 10 4 9.5 6.4375 C8.94455445 9.28415843 9.37785558 11.2003501 10 14 C9 15 9 15 7.1875 15.1328125 C6.465625 15.13023437 5.74375 15.12765625 5 15.125 C4.278125 15.12757813 3.55625 15.13015625 2.8125 15.1328125 C1 15 1 15 0 14 C-0.07271741 11.64686445 -0.08370868 9.29166332 -0.0625 6.9375 C-0.05347656 5.64714844 -0.04445312 4.35679687 -0.03515625 3.02734375 C-0.02355469 2.02832031 -0.01195312 1.02929688 0 0 Z " fill="#030303" transform="translate(240,204)"/>
<path d="M0 0 C0.55300781 0.22300781 1.10601562 0.44601563 1.67578125 0.67578125 C0.68578125 1.33578125 -0.30421875 1.99578125 -1.32421875 2.67578125 C-6.74697069 6.32464993 -11.91301113 9.82345286 -16.32421875 14.67578125 C-15.00421875 15.66578125 -13.68421875 16.65578125 -12.32421875 17.67578125 C-12.91589844 17.76472656 -13.50757813 17.85367188 -14.1171875 17.9453125 C-18.17019077 18.86434587 -20.60585442 19.6158171 -23 23.1484375 C-25.02823712 27.59380677 -26.48334208 31.85825868 -27.32421875 36.67578125 C-27.98421875 36.67578125 -28.64421875 36.67578125 -29.32421875 36.67578125 C-28.95311042 25.35697731 -23.47913837 17.08512406 -15.83203125 8.984375 C-5.27327674 -0.73559995 -5.27327674 -0.73559995 0 0 Z " fill="#7E7321" transform="translate(189.32421875,60.32421875)"/>
<path d="M0 0 C1.29210136 0.00212242 1.29210136 0.00212242 2.61030579 0.00428772 C5.36133294 0.00988485 8.11227869 0.02243679 10.86328125 0.03515625 C12.72851445 0.04017162 14.59374892 0.04473446 16.45898438 0.04882812 C21.03128136 0.05985333 25.6035175 0.07711598 30.17578125 0.09765625 C29.84578125 1.08765625 29.51578125 2.07765625 29.17578125 3.09765625 C15.97578125 3.09765625 2.77578125 3.09765625 -10.82421875 3.09765625 C-11.15421875 2.43765625 -11.48421875 1.77765625 -11.82421875 1.09765625 C-7.87657605 -0.21822465 -4.11332519 -0.02534648 0 0 Z " fill="#AB9306" transform="translate(205.82421875,137.90234375)"/>
<path d="M0 0 C6.625 -0.25 6.625 -0.25 10 2 C10.99549067 5.2708979 11.32868536 7.16733041 10.0625 10.375 C6.82221366 12.92795288 4.04581568 12.26529939 0 12 C0 8.04 0 4.08 0 0 Z M4 4 C4 5.32 4 6.64 4 8 C4.99 7.67 5.98 7.34 7 7 C6.67 6.01 6.34 5.02 6 4 C5.34 4 4.68 4 4 4 Z " fill="#040403" transform="translate(148,132)"/>
<path d="M0 0 C2.01526169 0.96887581 4.01833966 1.9641321 6 3 C6 4.32 6 5.64 6 7 C0.39 7 -5.22 7 -11 7 C-10.67 5.35 -10.34 3.7 -10 2 C-6.44502819 -0.36998121 -4.03499559 -1.76531057 0 0 Z " fill="#7F700E" transform="translate(217,22)"/>
<path d="M0 0 C1.30582031 -0.00257812 2.61164063 -0.00515625 3.95703125 -0.0078125 C7.1875 0.125 7.1875 0.125 9.1875 1.125 C9.1875 1.785 9.1875 2.445 9.1875 3.125 C5.90074342 5.31617105 4.95200466 5.22152576 1.1875 5.125 C0.1975 5.62 0.1975 5.62 -0.8125 6.125 C-2.81342586 6.13921112 -4.81557128 6.0647082 -6.8125 5.9375 C-8.42125 5.85435547 -8.42125 5.85435547 -10.0625 5.76953125 C-12.8125 5.125 -12.8125 5.125 -14.1875 3.07421875 C-14.39375 2.43097656 -14.6 1.78773437 -14.8125 1.125 C-9.8253318 0.3099764 -5.06998817 -0.01010965 0 0 Z " fill="#6D5E01" transform="translate(217.8125,35.875)"/>
<path d="M0 0 C13.2 0 26.4 0 40 0 C44 8 44 8 44 10 C36.41 10 28.82 10 21 10 C21 9.67 21 9.34 21 9 C26.94 8.67 32.88 8.34 39 8 C39 7.01 39 6.02 39 5 C38.34 5 37.68 5 37 5 C37 4.34 37 3.68 37 3 C24.46 3 11.92 3 -1 3 C-0.67 2.01 -0.34 1.02 0 0 Z " fill="#DFC712" transform="translate(195,69)"/>
<path d="M0 0 C1.134375 0.020625 2.26875 0.04125 3.4375 0.0625 C3.63151633 1.87431405 3.81754375 3.68698532 4 5.5 C4.10441406 6.50933594 4.20882812 7.51867187 4.31640625 8.55859375 C4.37634766 9.79802734 4.37634766 9.79802734 4.4375 11.0625 C3.4375 12.0625 3.4375 12.0625 1.58984375 12.16015625 C-0.4609375 12.12760417 -2.51171875 12.09505208 -4.5625 12.0625 C-4.58937279 10.25007948 -4.60883715 8.43754767 -4.625 6.625 C-4.63660156 5.61566406 -4.64820312 4.60632813 -4.66015625 3.56640625 C-4.50618986 -0.38129207 -4.09874205 0.07190776 0 0 Z " fill="#080607" transform="translate(112.5625,131.9375)"/>
<path d="M0 0 C3.625 0.375 3.625 0.375 7 1 C7.22174933 2.45635371 7.42698698 3.91522956 7.625 5.375 C7.74101562 6.18710938 7.85703125 6.99921875 7.9765625 7.8359375 C7.98429688 8.55007812 7.99203125 9.26421875 8 10 C6 12 6 12 3 12.25 C0 12 0 12 -2 10 C-2.265625 8.125 -2.265625 8.125 -2.25 6 C-2.25515625 5.29875 -2.2603125 4.5975 -2.265625 3.875 C-2 2 -2 2 0 0 Z " fill="#070607" transform="translate(123,132)"/>
<path d="M0 0 C2.31 0.33 4.62 0.66 7 1 C8.0257259 5.41062136 8.03684712 7.92630576 6 12 C3.125 12.125 3.125 12.125 0 12 C-2 10 -2 10 -2.25 6.5625 C-2 3 -2 3 0 0 Z M2 4 C2 5.65 2 7.3 2 9 C2.66 8.34 3.32 7.68 4 7 C3.34 6.01 2.68 5.02 2 4 Z " fill="#040404" transform="translate(286,133)"/>
<path d="M0 0 C1.65 0 3.3 0 5 0 C4.34 0.66 3.68 1.32 3 2 C22.8 2.495 22.8 2.495 43 3 C43 3.66 43 4.32 43 5 C29.14 5 15.28 5 1 5 C0.67 3.35 0.34 1.7 0 0 Z " fill="#827204" transform="translate(192,138)"/>
<path d="M0 0 C1.19882813 -0.04350586 1.19882813 -0.04350586 2.421875 -0.08789062 C8.01316426 -0.14766592 10.90762378 0.76155687 15.25 4.3125 C12.29502142 5.16281102 9.66081128 5.44097103 6.58984375 5.4453125 C5.2759668 5.44724609 5.2759668 5.44724609 3.93554688 5.44921875 C3.02869141 5.44535156 2.12183594 5.44148438 1.1875 5.4375 C0.27677734 5.44136719 -0.63394531 5.44523437 -1.57226562 5.44921875 C-2.44689453 5.44792969 -3.32152344 5.44664063 -4.22265625 5.4453125 C-5.01937744 5.44418457 -5.81609863 5.44305664 -6.63696289 5.44189453 C-8.75 5.3125 -8.75 5.3125 -11.75 4.3125 C-11.42 3.3225 -11.09 2.3325 -10.75 1.3125 C-7.39932051 -0.36283975 -3.68081208 0.04368052 0 0 Z " fill="#817209" transform="translate(214.75,47.6875)"/>
<path d="M0 0 C1.134375 0.020625 2.26875 0.04125 3.4375 0.0625 C3.416875 0.784375 3.39625 1.50625 3.375 2.25 C3.34151239 5.0655771 3.34151239 5.0655771 4.0625 7.75 C4.18625 8.513125 4.31 9.27625 4.4375 10.0625 C2.4375 12.0625 2.4375 12.0625 -0.1875 12.1875 C-0.97125 12.14625 -1.755 12.105 -2.5625 12.0625 C-3.2225 10.7425 -3.8825 9.4225 -4.5625 8.0625 C-2.9125 7.7325 -1.2625 7.4025 0.4375 7.0625 C-1.2125 7.0625 -2.8625 7.0625 -4.5625 7.0625 C-4.60504356 5.06295254 -4.60330783 3.06208364 -4.5625 1.0625 C-3.5625 0.0625 -3.5625 0.0625 0 0 Z " fill="#070707" transform="translate(315.5625,132.9375)"/>
<path d="M0 0 C1.65 0.33 3.3 0.66 5 1 C5 4.63 5 8.26 5 12 C5.66 12.33 6.32 12.66 7 13 C6.34 13.66 5.68 14.32 5 15 C1.375 14.625 1.375 14.625 -2 14 C-1.835 13.154375 -1.67 12.30875 -1.5 11.4375 C-0.90853822 7.95014583 -0.90853822 7.95014583 -1 4.1875 C-1 1 -1 1 0 0 Z " fill="#6E600F" transform="translate(213,0)"/>
<path d="M0 0 C8.25 0 16.5 0 25 0 C25.33 0.66 25.66 1.32 26 2 C24 4 24 4 20.62890625 4.16015625 C19.27323533 4.13753956 17.91770669 4.10457133 16.5625 4.0625 C11.21268929 3.88410785 11.21268929 3.88410785 6 5 C2.8125 4.0625 2.8125 4.0625 0 3 C0 2.01 0 1.02 0 0 Z " fill="#7F7004" transform="translate(201,33)"/>
<path d="M0 0 C0.66 0.99 1.32 1.98 2 3 C1.54625 3.391875 1.0925 3.78375 0.625 4.1875 C-1.27642919 6.30832487 -2.06204028 8.33042235 -3 11 C-0.69 11.33 1.62 11.66 4 12 C4 12.33 4 12.66 4 13 C1.03 13 -1.94 13 -5 13 C-5.33 13.66 -5.66 14.32 -6 15 C-6 14.34 -6 13.68 -6 13 C-6.56847656 13.08378906 -7.13695312 13.16757813 -7.72265625 13.25390625 C-12.76635545 13.91910197 -17.00294069 13.9568837 -22 13 C-19.21476474 11.25922796 -17.55313177 10.97069717 -14.1875 10.75 C-8.19357186 10.1349514 -4.71312373 6.09995812 -1.0625 1.625 C-0.5365625 0.820625 -0.5365625 0.820625 0 0 Z " fill="#9C8708" transform="translate(195,66)"/>
<path d="M0 0 C0.78375 0.04125 1.5675 0.0825 2.375 0.125 C2.519375 1.011875 2.66375 1.89875 2.8125 2.8125 C3.16066972 4.86283281 3.54885313 6.90733909 4 8.9375 C4.12375 9.659375 4.2475 10.38125 4.375 11.125 C3.375 12.125 3.375 12.125 1.52734375 12.22265625 C-0.5234375 12.19010417 -2.57421875 12.15755208 -4.625 12.125 C-4.439375 11.403125 -4.25375 10.68125 -4.0625 9.9375 C-3.45747571 7.13714155 -3.45747571 7.13714155 -4.1875 4.4375 C-4.331875 3.674375 -4.47625 2.91125 -4.625 2.125 C-2.625 0.125 -2.625 0.125 0 0 Z M-2.625 5.125 C-1.625 7.125 -1.625 7.125 -1.625 7.125 Z " fill="#040404" transform="translate(302.625,132.875)"/>
<path d="M0 0 C2.5 0.125 2.5 0.125 3.5 1.125 C3.54401732 3.45791811 3.53954234 5.79200175 3.5 8.125 C3.5 9.445 3.5 10.765 3.5 12.125 C0.86 12.125 -1.78 12.125 -4.5 12.125 C-2.625 7.375 -2.625 7.375 -1.5 5.125 C-2.49 5.125 -3.48 5.125 -4.5 5.125 C-3.38091354 0.16904568 -3.38091354 0.16904568 0 0 Z " fill="#050503" transform="translate(275.5,132.875)"/>
<path d="M0 0 C2.97 0 5.94 0 9 0 C8.67 2.31 8.34 4.62 8 7 C7.67 7 7.34 7 7 7 C6.67 8.65 6.34 10.3 6 12 C4.68 12 3.36 12 2 12 C1.814375 10.6078125 1.814375 10.6078125 1.625 9.1875 C1.18466918 5.86074765 1.18466918 5.86074765 -1 3 C-0.67 2.01 -0.34 1.02 0 0 Z " fill="#060504" transform="translate(135,132)"/>
<path d="M0 0 C2.80163026 4.2024454 2.14489712 7.00104935 2 12 C5.63 12.33 9.26 12.66 13 13 C13 13.99 13 14.98 13 16 C9.37 15.67 5.74 15.34 2 15 C2 16.65 2 18.3 2 20 C-0.6570542 16.96536441 -1.37529245 15.14688777 -1.25 11.125 C-1.22421875 10.25359375 -1.1984375 9.3821875 -1.171875 8.484375 C-0.97298048 5.60944517 -0.59372871 2.82021138 0 0 Z " fill="#868131" transform="translate(159,94)"/>
<path d="M0 0 C1.125 3.75 1.125 3.75 0 6 C-0.38630039 8.03583123 -0.73596784 10.0787318 -1.0625 12.125 C-1.23910156 13.22070312 -1.41570312 14.31640625 -1.59765625 15.4453125 C-1.73042969 16.28835937 -1.86320313 17.13140625 -2 18 C0.97 18 3.94 18 7 18 C6.97679687 17.25234375 6.95359375 16.5046875 6.9296875 15.734375 C6.90261719 14.25710937 6.90261719 14.25710937 6.875 12.75 C6.85179687 11.77546875 6.82859375 10.8009375 6.8046875 9.796875 C7 7 7 7 9 3 C9 8.61 9 14.22 9 20 C-0.10714286 20.26785714 -0.10714286 20.26785714 -4 18 C-3.7159949 15.93643105 -3.42246648 13.8741715 -3.125 11.8125 C-2.96257812 10.66394531 -2.80015625 9.51539062 -2.6328125 8.33203125 C-2.05939755 5.31275375 -1.25240957 2.79424152 0 0 Z " fill="#E3C81E" transform="translate(176,89)"/>
<path d="M0 0 C0.33 0.66 0.66 1.32 1 2 C1.66 2 2.32 2 3 2 C3.23074219 2.70125 3.46148437 3.4025 3.69921875 4.125 C6.09942151 11.10740802 8.70378976 17.70378976 14 23 C14 23.99 14 24.98 14 26 C8.21729864 23.77588409 5.83679242 18.19393395 3 13 C1.05920195 8.50766326 0 4.91614081 0 0 Z " fill="#7C7830" transform="translate(159,112)"/>
<path d="M0 0 C2.0625 0.4375 2.0625 0.4375 4 1 C3.67 2.32 3.34 3.64 3 5 C2.34 5 1.68 5 1 5 C0.67 5.66 0.34 6.32 0 7 C0 6.34 0 5.68 0 5 C-5.94 5.495 -5.94 5.495 -12 6 C-12 4.35 -12 2.7 -12 1 C-11.21753906 1.01160156 -10.43507812 1.02320313 -9.62890625 1.03515625 C-8.61699219 1.04417969 -7.60507813 1.05320313 -6.5625 1.0625 C-5.04849609 1.07990234 -5.04849609 1.07990234 -3.50390625 1.09765625 C-1.05978933 1.28612676 -1.05978933 1.28612676 0 0 Z " fill="#827105" transform="translate(219,40)"/>
<path d="M0 0 C1.093125 0.0825 2.18625 0.165 3.3125 0.25 C2.3225 4.21 1.3325 8.17 0.3125 12.25 C-0.0175 12.25 -0.3475 12.25 -0.6875 12.25 C-0.6875 10.27 -0.6875 8.29 -0.6875 6.25 C-2.6675 6.58 -4.6475 6.91 -6.6875 7.25 C-6.6875 8.24 -6.6875 9.23 -6.6875 10.25 C-7.3475 10.25 -8.0075 10.25 -8.6875 10.25 C-5.77476415 0.39150943 -5.77476415 0.39150943 0 0 Z " fill="#EACD0A" transform="translate(185.6875,78.75)"/>
<path d="M0 0 C0.33 0 0.66 0 1 0 C1.19756803 3.72870453 1.38128099 7.45796796 1.5625 11.1875 C1.61857422 12.24259766 1.67464844 13.29769531 1.73242188 14.38476562 C1.78076172 15.40634766 1.82910156 16.42792969 1.87890625 17.48046875 C1.9260376 18.41785889 1.97316895 19.35524902 2.02172852 20.32104492 C1.99989432 23.01302932 1.61586406 25.38516976 1 28 C0.34 28 -0.32 28 -1 28 C-1 26.68 -1 25.36 -1 24 C-1.66 23.34 -2.32 22.68 -3 22 C-2.67 21.34 -2.34 20.68 -2 20 C-1.86154142 18.64967202 -1.77496115 17.29374361 -1.71875 15.9375 C-1.68136719 15.14085937 -1.64398438 14.34421875 -1.60546875 13.5234375 C-1.55326172 12.27433594 -1.55326172 12.27433594 -1.5 11 C-1.43120389 9.35398928 -1.35847244 7.70813693 -1.28125 6.0625 C-1.25095703 5.33160156 -1.22066406 4.60070312 -1.18945312 3.84765625 C-1 2 -1 2 0 0 Z " fill="#7D6E0C" transform="translate(197,26)"/>
<path d="M0 0 C0.33 0 0.66 0 1 0 C1.60889013 9.80989656 1.60889013 9.80989656 -0.375 13.6875 C-4.46856205 15.73428103 -8.50994883 15.3084768 -13 15 C-12.67 14.01 -12.34 13.02 -12 12 C-8.37 12 -4.74 12 -1 12 C-1.020625 10.576875 -1.04125 9.15375 -1.0625 7.6875 C-1.10581883 4.69850044 -0.96070434 2.88211302 0 0 Z " fill="#8C873E" transform="translate(270,96)"/>
<path d="M0 0 C0.99 0.495 0.99 0.495 2 1 C2 1.99 2 2.98 2 4 C3.32 4.33 4.64 4.66 6 5 C6 5.66 6 6.32 6 7 C6.66 7.20625 7.32 7.4125 8 7.625 C12.11606263 9.51152871 15.4587703 12.20567979 19 15 C16 16 16 16 13.58984375 14.8203125 C12.71457031 14.26085937 11.83929688 13.70140625 10.9375 13.125 C10.05964844 12.57070312 9.18179688 12.01640625 8.27734375 11.4453125 C7.52582031 10.96835937 6.77429688 10.49140625 6 10 C5.34 9.67 4.68 9.34 4 9 C4 8.01 4 7.02 4 6 C2.68 5.34 1.36 4.68 0 4 C0 2.68 0 1.36 0 0 Z " fill="#797425" transform="translate(235,53)"/>
<path d="M0 0 C1.96301592 3.50538557 2.95902388 7.13351728 4 11 C-0.82034262 10.58682778 -2.90992611 8.61980085 -6 5 C-6 4.34 -6 3.68 -6 3 C-5.195625 2.87625 -4.39125 2.7525 -3.5625 2.625 C-2.716875 2.41875 -1.87125 2.2125 -1 2 C-0.67 1.34 -0.34 0.68 0 0 Z " fill="#E4CA16" transform="translate(187,126)"/>
<path d="M0 0 C3.1717294 3.64136316 5.11576781 7.0707326 6.875 11.5625 C7.32617188 12.67753906 7.77734375 13.79257813 8.2421875 14.94140625 C9 18 9 18 8.1328125 20.40234375 C7.75898438 20.92957031 7.38515625 21.45679687 7 22 C6.82984375 21.443125 6.6596875 20.88625 6.484375 20.3125 C4.76684063 14.90409391 2.64657745 10.01937104 0 5 C-0.66 5 -1.32 5 -2 5 C-2 4.34 -2 3.68 -2 3 C-1.34 3 -0.68 3 0 3 C0 2.01 0 1.02 0 0 Z " fill="#736C26" transform="translate(262,77)"/>
<path d="M0 0 C1.32 0.66 2.64 1.32 4 2 C3.67 9.59 3.34 17.18 3 25 C2.67 25 2.34 25 2 25 C1.67 18.73 1.34 12.46 1 6 C0.67 11.94 0.34 17.88 0 24 C-0.33 24 -0.66 24 -1 24 C-1.02901394 20.5625177 -1.04680335 17.12506688 -1.0625 13.6875 C-1.07087891 12.71103516 -1.07925781 11.73457031 -1.08789062 10.72851562 C-1.09111328 9.79072266 -1.09433594 8.85292969 -1.09765625 7.88671875 C-1.10551147 6.59060669 -1.10551147 6.59060669 -1.11352539 5.26831055 C-1 3 -1 3 0 0 Z " fill="#877933" transform="translate(196,22)"/>
<path d="M0 0 C0.99 0.33 1.98 0.66 3 1 C3.3721042 2.32303717 3.70630173 3.65737935 4 5 C4.66 5.33 5.32 5.66 6 6 C5.34 6.66 4.68 7.32 4 8 C0.375 7.625 0.375 7.625 -3 7 C-1.125 1.125 -1.125 1.125 0 0 Z " fill="#756608" transform="translate(214,7)"/>
<path d="M0 0 C0.33 0.66 0.66 1.32 1 2 C1.639375 1.79375 2.27875 1.5875 2.9375 1.375 C7.21252658 0.85152736 10.87345947 1.91217559 15 3 C15 3.33 15 3.66 15 4 C10.05 4 5.1 4 0 4 C-0.33 4.66 -0.66 5.32 -1 6 C-1.33 5.34 -1.66 4.68 -2 4 C-1.0625 1.875 -1.0625 1.875 0 0 Z " fill="#8C7F15" transform="translate(237,136)"/>
<path d="M0 0 C4.41889613 1.35021826 6.34345343 3.26115668 9 7 C6.69 7 4.38 7 2 7 C1.34 4.69 0.68 2.38 0 0 Z " fill="#DFC924" transform="translate(238,72)"/>
<path d="M0 0 C0.66 0 1.32 0 2 0 C2.2475 1.134375 2.495 2.26875 2.75 3.4375 C3.767135 7.60255646 5.40133077 11.28043767 7.29296875 15.1171875 C7.52628906 15.73851563 7.75960937 16.35984375 8 17 C7.67 17.66 7.34 18.32 7 19 C3.08355629 12.811421 1.01474939 7.2547009 0 0 Z " fill="#E1CD2C" transform="translate(173,110)"/>
<path d="M0 0 C1.093125 0.0825 2.18625 0.165 3.3125 0.25 C3.3125 0.58 3.3125 0.91 3.3125 1.25 C1.3325 1.58 -0.6475 1.91 -2.6875 2.25 C-2.6875 3.9 -2.6875 5.55 -2.6875 7.25 C-4.0075 7.25 -5.3275 7.25 -6.6875 7.25 C-6.6875 8.24 -6.6875 9.23 -6.6875 10.25 C-7.3475 10.25 -8.0075 10.25 -8.6875 10.25 C-5.77476415 0.39150943 -5.77476415 0.39150943 0 0 Z " fill="#E2C81A" transform="translate(185.6875,78.75)"/>
<path d="M0 0 C0.33 0 0.66 0 1 0 C1 1.65 1 3.3 1 5 C1.99 4.67 2.98 4.34 4 4 C3.67 5.65 3.34 7.3 3 9 C2.01 9.33 1.02 9.66 0 10 C-0.66 8.68 -1.32 7.36 -2 6 C-2.99 6.495 -2.99 6.495 -4 7 C-2.79618552 4.50638429 -1.54571278 2.31856917 0 0 Z " fill="#716411" transform="translate(233,44)"/>
<path d="M0 0 C-0.33 0.66 -0.66 1.32 -1 2 C1.97 2.495 1.97 2.495 5 3 C1.3791799 4.01382963 -2.27811418 4.49897691 -6 5 C-6 3 -6 3 -5 2 C-5.99 1.67 -6.98 1.34 -8 1 C-4.93251126 -0.86240388 -3.40254489 -1.2151946 0 0 Z " fill="#817428" transform="translate(212,12)"/>
<path d="M0 0 C0.33 0 0.66 0 1 0 C1.12086218 6.43255401 0.82351864 12.61773055 0 19 C-0.33 19 -0.66 19 -1 19 C-1.22237877 16.58388467 -1.42832339 14.1682283 -1.625 11.75 C-1.72167969 10.72712891 -1.72167969 10.72712891 -1.8203125 9.68359375 C-2.11594735 5.8772951 -2.17561392 3.22190154 0 0 Z " fill="#837515" transform="translate(234,24)"/>
<path d="M0 0 C-0.99 0.66 -1.98 1.32 -3 2 C-3.99 2.721875 -4.98 3.44375 -6 4.1875 C-7.485 5.0846875 -7.485 5.0846875 -9 6 C-9.99 5.67 -10.98 5.34 -12 5 C-5.5 -1.96428571 -5.5 -1.96428571 0 0 Z " fill="#7E792C" transform="translate(191,61)"/>
<path d="M0 0 C-2.54782974 2.97246802 -5.45340883 4.41535288 -9 6 C-9.66 6 -10.32 6 -11 6 C-11 5.01 -11 4.02 -11 3 C-9.73581754 2.30034557 -8.46334598 1.61565237 -7.1875 0.9375 C-6.47980469 0.55464844 -5.77210938 0.17179688 -5.04296875 -0.22265625 C-3 -1 -3 -1 0 0 Z " fill="#7D7437" transform="translate(248,146)"/>
<path d="M0 0 C0.33 0 0.66 0 1 0 C1.375 2.0625 1.375 2.0625 1 5 C-0.79177109 7.53572282 -2.84238121 9.77174488 -5 12 C-5.6484375 10.1953125 -5.6484375 10.1953125 -6 8 C-3.625 4.875 -3.625 4.875 -1 2 C-0.67 1.34 -0.34 0.68 0 0 Z " fill="#806F23" transform="translate(262,128)"/>
<path d="M0 0 C3.31562557 0.55260426 6.15062207 1.16825705 9 3 C9.33 3.99 9.66 4.98 10 6 C6.20696275 4.99806563 3.28463659 4.18975773 0 2 C0 1.34 0 0.68 0 0 Z " fill="#817C30" transform="translate(183,146)"/>
<path d="M0 0 C1 3 1 3 0.22265625 4.82421875 C-0.8515625 6.54947917 -1.92578125 8.27473958 -3 10 C-3.33 10 -3.66 10 -4 10 C-3.67 7.03 -3.34 4.06 -3 1 C-2.01 0.67 -1.02 0.34 0 0 Z " fill="#E4CF23" transform="translate(253,119)"/>
<path d="M0 0 C2.74060659 2.74060659 3.21038333 5.24932082 4 9 C3.01 10.485 3.01 10.485 2 12 C1.46809459 10.56656 0.94984742 9.12804633 0.4375 7.6875 C0.14746094 6.88699219 -0.14257812 6.08648437 -0.44140625 5.26171875 C-1 3 -1 3 0 0 Z " fill="#7E7A27" transform="translate(267,87)"/>
<path d="M0 0 C0.33 0.66 0.66 1.32 1 2 C0.0625 4.625 0.0625 4.625 -1 7 C-2.65 7 -4.3 7 -6 7 C-4.60667426 3.63279613 -3.0210714 2.0140476 0 0 Z " fill="#DAC026" transform="translate(191,71)"/>
<path d="M0 0 C0.99 0.33 1.98 0.66 3 1 C0.14285714 8.57142857 0.14285714 8.57142857 -4 11 C-3.6875 9.0625 -3.6875 9.0625 -3 7 C-2.01 6.67 -1.02 6.34 0 6 C-0.185625 5.38125 -0.37125 4.7625 -0.5625 4.125 C-1 2 -1 2 0 0 Z " fill="#746915" transform="translate(227,33)"/>
<path d="M0 0 C1.04449911 3.13349732 0.93423645 3.98968256 0 7 C0.66 7.33 1.32 7.66 2 8 C1.34 8.66 0.68 9.32 0 10 C-1.32 9.67 -2.64 9.34 -4 9 C-2.68 6.03 -1.36 3.06 0 0 Z " fill="#E2CA17" transform="translate(242,128)"/>
<path d="M0 0 C0.99 0.495 0.99 0.495 2 1 C2 1.99 2 2.98 2 4 C3.32 4.33 4.64 4.66 6 5 C6 5.66 6 6.32 6 7 C6.66 7 7.32 7 8 7 C7.67 7.66 7.34 8.32 7 9 C6.01 9 5.02 9 4 9 C4 8.01 4 7.02 4 6 C2.68 5.34 1.36 4.68 0 4 C0 2.68 0 1.36 0 0 Z " fill="#706825" transform="translate(235,53)"/>
<path d="M0 0 C2.33944736 0.28730055 4.6739143 0.61936779 7 1 C7.33 1.99 7.66 2.98 8 4 C4.26512223 3.5020163 2.18762365 3.12508244 -1 1 C-0.67 0.67 -0.34 0.34 0 0 Z " fill="#7F7312" transform="translate(219,13)"/>
<path d="M0 0 C0.66 0.33 1.32 0.66 2 1 C2 2.32 2 3.64 2 5 C-1.63 4.34 -5.26 3.68 -9 3 C-9 2.67 -9 2.34 -9 2 C-6.03 2 -3.06 2 0 2 C0 1.34 0 0.68 0 0 Z " fill="#A08D12" transform="translate(191,135)"/>
<path d="M0 0 C1.875 0.1875 1.875 0.1875 4 1 C5.25 3.5625 5.25 3.5625 6 6 C4.02 5.34 2.04 4.68 0 4 C0 2.68 0 1.36 0 0 Z " fill="#E7CF24" transform="translate(246,81)"/>
<path d="M0 0 C1.875 0.125 1.875 0.125 4 1 C5.25 4.0625 5.25 4.0625 6 7 C4.68 6.67 3.36 6.34 2 6 C2 5.01 2 4.02 2 3 C1.34 3 0.68 3 0 3 C0 2.01 0 1.02 0 0 Z " fill="#6C6110" transform="translate(236,152)"/>
<path d="M0 0 C0 0.99 0 1.98 0 3 C-2.97 2.67 -5.94 2.34 -9 2 C-5.5647952 -0.29013653 -4.014669 -0.17842973 0 0 Z " fill="#949238" transform="translate(172,107)"/>
<path d="M0 0 C0.33 0 0.66 0 1 0 C1 6.27 1 12.54 1 19 C0.67 19 0.34 19 0 19 C0 12.73 0 6.46 0 0 Z " fill="#000000" transform="translate(210,173)"/>
<path d="M0 0 C1.175625 0.0825 2.35125 0.165 3.5625 0.25 C4.2225 1.24 4.8825 2.23 5.5625 3.25 C-1.0625 3.5 -1.0625 3.5 -4.4375 1.25 C-3.4375 0.25 -3.4375 0.25 0 0 Z " fill="#99943A" transform="translate(181.4375,135.75)"/>
<path d="M0 0 C-1.5 1.5625 -1.5 1.5625 -4 3 C-6.77437543 2.96823234 -9.25286467 2.50364148 -12 2 C-8.09971775 -0.60018816 -4.52565431 -0.15085514 0 0 Z " fill="#9A9331" transform="translate(185,77)"/>
<path d="M0 0 C0.66 0 1.32 0 2 0 C2 0.99 2 1.98 2 3 C2.99 3.33 3.98 3.66 5 4 C5 4.33 5 4.66 5 5 C3.02 5 1.04 5 -1 5 C-0.67 3.35 -0.34 1.7 0 0 Z " fill="#706111" transform="translate(199,48)"/>
<path d="M0 0 C2.475 0.99 2.475 0.99 5 2 C5 3.32 5 4.64 5 6 C3.0625 5.25 3.0625 5.25 1 4 C0.25 1.875 0.25 1.875 0 0 Z " fill="#73741E" transform="translate(168,132)"/>
<path d="M0 0 C0.99 0 1.98 0 3 0 C4.6875 2.5 4.6875 2.5 6 5 C5.34 5.66 4.68 6.32 4 7 C3.34 5.35 2.68 3.7 2 2 C1.34 2 0.68 2 0 2 C0 1.34 0 0.68 0 0 Z " fill="#9A8D26" transform="translate(233,67)"/>
<path d="M0 0 C2.97 0.495 2.97 0.495 6 1 C5.67 1.99 5.34 2.98 5 4 C3.0625 3.6875 3.0625 3.6875 1 3 C0.67 2.01 0.34 1.02 0 0 Z " fill="#685800" transform="translate(203,37)"/>
<path d="M0 0 C0 0.33 0 0.66 0 1 C-6.0546875 1.1953125 -6.0546875 1.1953125 -8 1 C-8.66 0.34 -9.32 -0.32 -10 -1 C-6.06329512 -2.31223496 -3.87511856 -1.24296256 0 0 Z " fill="#706607" transform="translate(219,24)"/>
<path d="M0 0 C0.99 0.495 0.99 0.495 2 1 C1.67 3.97 1.34 6.94 1 10 C0.67 10 0.34 10 0 10 C0 6.7 0 3.4 0 0 Z " fill="#000000" transform="translate(257,176)"/>
<path d="M0 0 C0.33 0 0.66 0 1 0 C1 3.3 1 6.6 1 10 C0.67 10 0.34 10 0 10 C0 6.7 0 3.4 0 0 Z " fill="#000000" transform="translate(146,133)"/>
<path d="M0 0 C0.33 0 0.66 0 1 0 C1 2.97 1 5.94 1 9 C0.67 9 0.34 9 0 9 C0 6.03 0 3.06 0 0 Z " fill="#000000" transform="translate(170,184)"/>
<path d="M0 0 C2.31 0 4.62 0 7 0 C7 0.33 7 0.66 7 1 C4.69 1 2.38 1 0 1 C0 0.67 0 0.34 0 0 Z " fill="#000000" transform="translate(220,185)"/>
<path d="M0 0 C0.33 0 0.66 0 1 0 C1 2.31 1 4.62 1 7 C0.67 7 0.34 7 0 7 C0 4.69 0 2.38 0 0 Z " fill="#000000" transform="translate(170,171)"/>
<path d="M0 0 C0.33 0 0.66 0 1 0 C1 1.98 1 3.96 1 6 C0.67 6 0.34 6 0 6 C0 4.02 0 2.04 0 0 Z " fill="#000000" transform="translate(238,212)"/>
<path d="M0 0 C0.33 0 0.66 0 1 0 C1 1.98 1 3.96 1 6 C0.67 6 0.34 6 0 6 C0 4.02 0 2.04 0 0 Z " fill="#000000" transform="translate(247,186)"/>
<path d="M0 0 C0.33 0 0.66 0 1 0 C1 1.98 1 3.96 1 6 C0.67 6 0.34 6 0 6 C0 4.02 0 2.04 0 0 Z " fill="#000000" transform="translate(142,178)"/>
<path d="M0 0 C1.98 0 3.96 0 6 0 C6 0.33 6 0.66 6 1 C4.02 1 2.04 1 0 1 C0 0.67 0 0.34 0 0 Z " fill="#000000" transform="translate(272,146)"/>
<path d="M0 0 C1.98 0 3.96 0 6 0 C6 0.33 6 0.66 6 1 C4.02 1 2.04 1 0 1 C0 0.67 0 0.34 0 0 Z " fill="#000000" transform="translate(109,145)"/>
<path d="M0 0 C1.98 0 3.96 0 6 0 C6 0.33 6 0.66 6 1 C4.02 1 2.04 1 0 1 C0 0.67 0 0.34 0 0 Z " fill="#000000" transform="translate(312,131)"/>
<path d="M0 0 C1.65 0 3.3 0 5 0 C5 0.33 5 0.66 5 1 C3.35 1 1.7 1 0 1 C0 0.67 0 0.34 0 0 Z " fill="#000000" transform="translate(149,145)"/>
<path d="M0 0 C0.33 0 0.66 0 1 0 C1 1.65 1 3.3 1 5 C0.67 5 0.34 5 0 5 C0 3.35 0 1.7 0 0 Z " fill="#000000" transform="translate(282,136)"/>
<path d="M0 0 C1.65 0 3.3 0 5 0 C5 0.33 5 0.66 5 1 C3.35 1 1.7 1 0 1 C0 0.67 0 0.34 0 0 Z " fill="#000000" transform="translate(138,130)"/>
<path d="M0 0 C1 4 1 4 1 4 Z " fill="#000000" transform="translate(250,209)"/>
<path d="M0 0 C1 4 1 4 1 4 Z " fill="#000000" transform="translate(304,170)"/>
<path d="M0 0 C1 4 1 4 1 4 Z " fill="#000000" transform="translate(247,170)"/>
<path d="M0 0 C4 1 4 1 4 1 Z " fill="#000000" transform="translate(301,146)"/>
<path d="M0 0 C1 4 1 4 1 4 Z " fill="#000000" transform="translate(307,135)"/>
<path d="M0 0 C1 4 1 4 1 4 Z " fill="#000000" transform="translate(280,135)"/>
<path d="M0 0 C1 4 1 4 1 4 Z " fill="#000000" transform="translate(119,134)"/>
<path d="M0 0 C1 4 1 4 1 4 Z " fill="#555515" transform="translate(229,29)"/>
<path d="" fill="#000000" transform="translate(0,0)"/>
<path d="M0 0 C3 1 3 1 3 1 Z " fill="#000000" transform="translate(180,185)"/>
<path d="M0 0 C0.99 0.495 0.99 0.495 2 1 C1.01 1.495 1.01 1.495 0 2 C0 1.34 0 0.68 0 0 Z " fill="#000000" transform="translate(135,177)"/>
<path d="" fill="#000000" transform="translate(0,0)"/>
<path d="M0 0 C2 1 2 1 2 1 Z " fill="#000000" transform="translate(205,220)"/>
<path d="" fill="#000000" transform="translate(0,0)"/>
<path d="" fill="#000000" transform="translate(0,0)"/>
<path d="" fill="#000000" transform="translate(0,0)"/>
<path d="M0 0 C2 1 2 1 2 1 Z " fill="#000000" transform="translate(261,194)"/>
<path d="" fill="#000000" transform="translate(0,0)"/>
<path d="" fill="#000000" transform="translate(0,0)"/>
<path d="" fill="#000000" transform="translate(0,0)"/>
<path d="" fill="#000000" transform="translate(0,0)"/>
<path d="M0 0 C2 1 2 1 2 1 Z " fill="#000000" transform="translate(126,145)"/>
<path d="" fill="#000000" transform="translate(0,0)"/>
<path d="" fill="#000000" transform="translate(0,0)"/>
<path d="" fill="#000000" transform="translate(0,0)"/>
<path d="" fill="#000000" transform="translate(0,0)"/>
<path d="M0 0 C2 1 2 1 2 1 Z " fill="#000000" transform="translate(301,131)"/>
<path d="M0 0 C2 1 2 1 2 1 Z " fill="#000000" transform="translate(288,131)"/>
<path d="M0 0 C2 1 2 1 2 1 Z " fill="#000000" transform="translate(274,131)"/>
<path d="M0 0 C2 1 2 1 2 1 Z " fill="#000000" transform="translate(125,130)"/>
<path d="M0 0 C2 1 2 1 2 1 Z " fill="#000000" transform="translate(110,130)"/>
<path d="M0 0 C2 1 2 1 2 1 Z " fill="#AAAA55" transform="translate(251,82)"/>
<path d="" fill="#2A2A2A" transform="translate(0,0)"/>
<path d="" fill="#000000" transform="translate(0,0)"/>
<path d="" fill="#000000" transform="translate(0,0)"/>
<path d="" fill="#000000" transform="translate(0,0)"/>
<path d="" fill="#000000" transform="translate(0,0)"/>
<path d="" fill="#000000" transform="translate(0,0)"/>
<path d="" fill="#000000" transform="translate(0,0)"/>
<path d="" fill="#000000" transform="translate(0,0)"/>
<path d="" fill="#000000" transform="translate(0,0)"/>
<path d="" fill="#000000" transform="translate(0,0)"/>
<path d="" fill="#000000" transform="translate(0,0)"/>
<path d="" fill="#000000" transform="translate(0,0)"/>
<path d="" fill="#000000" transform="translate(0,0)"/>
<path d="" fill="#000000" transform="translate(0,0)"/>
<path d="" fill="#000000" transform="translate(0,0)"/>
<path d="" fill="#000000" transform="translate(0,0)"/>
<path d="" fill="#000000" transform="translate(0,0)"/>
<path d="" fill="#000000" transform="translate(0,0)"/>
<path d="" fill="#000000" transform="translate(0,0)"/>
<path d="" fill="#000000" transform="translate(0,0)"/>
<path d="" fill="#000000" transform="translate(0,0)"/>
<path d="" fill="#000000" transform="translate(0,0)"/>
<path d="" fill="#000000" transform="translate(0,0)"/>
<path d="" fill="#000000" transform="translate(0,0)"/>
<path d="" fill="#000000" transform="translate(0,0)"/>
<path d="" fill="#000000" transform="translate(0,0)"/>
<path d="" fill="#000000" transform="translate(0,0)"/>
<path d="" fill="#000000" transform="translate(0,0)"/>
<path d="" fill="#000000" transform="translate(0,0)"/>
<path d="" fill="#000000" transform="translate(0,0)"/>
<path d="" fill="#000000" transform="translate(0,0)"/>
<path d="" fill="#000000" transform="translate(0,0)"/>
<path d="" fill="#000000" transform="translate(0,0)"/>
<path d="" fill="#000000" transform="translate(0,0)"/>
<path d="" fill="#000000" transform="translate(0,0)"/>
<path d="" fill="#000000" transform="translate(0,0)"/>
<path d="" fill="#FFFFFF" transform="translate(0,0)"/>
<path d="" fill="#000000" transform="translate(0,0)"/>
<path d="" fill="#000000" transform="translate(0,0)"/>
<path d="" fill="#FFFF00" transform="translate(0,0)"/>
<path d="" fill="#000000" transform="translate(0,0)"/>
<path d="" fill="#000000" transform="translate(0,0)"/>
<path d="" fill="#000000" transform="translate(0,0)"/>
<path d="" fill="#000000" transform="translate(0,0)"/>
<path d="" fill="#000000" transform="translate(0,0)"/>
<path d="" fill="#000000" transform="translate(0,0)"/>
<path d="" fill="#000000" transform="translate(0,0)"/>
<path d="" fill="#000000" transform="translate(0,0)"/>
<path d="" fill="#000000" transform="translate(0,0)"/>
<path d="" fill="#000000" transform="translate(0,0)"/>
</svg>
